<?xml version="1.0" encoding="iso-8859-1"?>
<!-- Generator: Adobe Illustrator 16.0.0, SVG Export Plug-In . SVG Version: 6.00 Build 0)  -->
<!DOCTYPE svg PUBLIC "-//W3C//DTD SVG 1.1//EN" "http://www.w3.org/Graphics/SVG/1.1/DTD/svg11.dtd">
<svg version="1.1" id="Capa_1" xmlns="http://www.w3.org/2000/svg" xmlns:xlink="http://www.w3.org/1999/xlink" x="0px" y="0px"
	 width="55.002px" height="55.002px" viewBox="0 0 55.002 55.002" style="enable-background:new 0 0 55.002 55.002;"
	 xml:space="preserve">
<g>
	<g>
		<path d="M53.854,11.565C52.986,10.88,52,11.37,52,11.921c0,0.553,0.4,0.986,0.707,1.293C52.889,13.396,53,13.646,53,13.921v1
			c0,0.552-0.448,0.974-1,0.974c0,0-0.232,0-0.521,0c-0.287,0-0.582,0.386-0.658,0.861l-0.139,0.861l-0.687,5.151l-2.646-2.172
			c-1.604-1.317-4.25-1.505-6.021-0.429l-3.188,1.938c-1.092,0.663-3.015,0.679-4.115,0.035l-3.467-2.025
			c-1.752-1.023-4.441-0.937-6.125,0.199l-2.51,1.695c-1.039,0.7-2.892,0.75-3.964,0.101l-3.234-1.951
			c-1.76-1.06-4.426-0.931-6.072,0.301l-3.185,2.379l-0.695-5.222c0,0-0.039-0.38-0.087-0.849C4.638,16.299,4.242,15.91,3.8,15.913
			C3.4,15.916,3,15.92,3,15.92c-0.552,0-1-0.447-1-0.999v-1c0-0.277,0.112-0.527,0.293-0.708C2.6,12.906,3,12.474,3,11.92
			s-0.987-1.041-1.854-0.356C0.449,12.114,0,12.965,0,13.92v1c0,1.654,1.346,3,3,3c0.016,0,0.411,2.888,0.918,6.645
			c0.004,0.08,0.009,0.157,0.032,0.234c0.944,6.993,2.252,16.806,2.252,16.806c0.163,1.215,1.251,2.168,2.476,2.168h38.099
			c1.227,0,2.313-0.953,2.477-2.168l3.188-23.729c1.443-0.215,2.561-1.452,2.561-2.955v-1C55,12.966,54.552,12.114,53.854,11.565z
			 M47.518,41.372c-0.045,0.34-0.396,0.65-0.74,0.65H8.678c-0.343,0-0.695-0.312-0.74-0.65L5.77,25.109l4.08-3.048
			c0.991-0.74,2.784-0.828,3.842-0.19l3.234,1.951c1.741,1.052,4.429,0.982,6.116-0.155l2.509-1.695
			c1.043-0.703,2.91-0.765,3.999-0.131l3.468,2.025c1.736,1.015,4.442,0.992,6.162-0.053l3.188-1.938
			c1.055-0.639,2.756-0.521,3.714,0.265l3.604,2.959L47.518,41.372z"/>
		<path d="M25.576,28.301h-3.133l-4.104,5.04l0.456,1.97h4.045v1.451h2.736V35.31h1.008V33.33h-1.008V28.301z M22.84,33.363h-1.788
			l1.788-2.231V33.363z"/>
		<path d="M34.745,29.608c-0.349-0.399-0.772-0.717-1.272-0.953s-1.064-0.354-1.697-0.354c-0.641,0-1.211,0.12-1.711,0.36
			s-0.924,0.56-1.271,0.96c-0.349,0.399-0.614,0.866-0.798,1.398c-0.185,0.531-0.276,1.086-0.276,1.662v0.023
			c0,0.574,0.09,1.127,0.271,1.654c0.179,0.528,0.443,0.992,0.791,1.393c0.348,0.399,0.77,0.72,1.266,0.953
			c0.496,0.235,1.063,0.354,1.704,0.354c0.632,0,1.2-0.121,1.704-0.361c0.504-0.239,0.93-0.559,1.276-0.959
			c0.35-0.399,0.615-0.866,0.799-1.397c0.185-0.53,0.275-1.086,0.275-1.661v-0.023c0-0.576-0.091-1.129-0.271-1.656
			C35.355,30.474,35.093,30.009,34.745,29.608z M33.023,32.706c0,0.574-0.111,1.039-0.336,1.393
			c-0.226,0.353-0.527,0.527-0.912,0.527c-0.191,0-0.365-0.049-0.521-0.145c-0.156-0.099-0.29-0.229-0.402-0.396
			c-0.11-0.166-0.197-0.371-0.258-0.61c-0.06-0.239-0.09-0.504-0.09-0.792v-0.024c0-0.576,0.112-1.039,0.336-1.393
			c0.225-0.353,0.528-0.527,0.912-0.527c0.191,0,0.366,0.047,0.521,0.145c0.156,0.098,0.289,0.229,0.4,0.396
			c0.112,0.168,0.198,0.373,0.26,0.612c0.061,0.239,0.09,0.505,0.09,0.792V32.706z"/>
	</g>
</g>
<g>
</g>
<g>
</g>
<g>
</g>
<g>
</g>
<g>
</g>
<g>
</g>
<g>
</g>
<g>
</g>
<g>
</g>
<g>
</g>
<g>
</g>
<g>
</g>
<g>
</g>
<g>
</g>
<g>
</g>
</svg>
