<?xml version="1.0" encoding="iso-8859-1"?>
<!-- Generator: Adobe Illustrator 18.1.1, SVG Export Plug-In . SVG Version: 6.00 Build 0)  -->
<svg version="1.1" id="Capa_1" xmlns="http://www.w3.org/2000/svg" xmlns:xlink="http://www.w3.org/1999/xlink" x="0px" y="0px"
	 viewBox="0 0 57.376 57.376" style="enable-background:new 0 0 57.376 57.376;" xml:space="preserve">
<g>
	<g>
		<path style="fill:#030104;" d="M28.689,0C12.87,0,0,12.869,0,28.688c0,15.818,12.87,28.688,28.689,28.688
			c15.817,0,28.687-12.869,28.687-28.688C57.373,12.869,44.506,0,28.689,0z M28.689,54.375C14.524,54.375,3,42.852,3,28.687
			C3,14.523,14.524,2.999,28.689,2.999c14.163,0,25.687,11.523,25.687,25.688C54.373,42.852,42.852,54.375,28.689,54.375z"/>
		<path style="fill:#030104;" d="M29.398,13.861h-8.327c-0.553,0-1,0.447-1,1v23.107c0,0.554,0.447,1,1,1h3.532c0.553,0,1-0.446,1-1
			v-7.786c0-0.554,0.447-1,1-1h3.043c5.283,0,9.291-1.81,9.291-7.696C38.937,15.527,34.612,13.861,29.398,13.861z M29.291,24.5
			h-2.688c-0.553,0-1-0.447-1-1v-3.957c0-0.553,0.447-1,1-1h1.837c2.129,0,4.752,0.354,4.752,2.943
			C33.192,23.826,31.243,24.5,29.291,24.5z"/>
	</g>
</g>
<g>
</g>
<g>
</g>
<g>
</g>
<g>
</g>
<g>
</g>
<g>
</g>
<g>
</g>
<g>
</g>
<g>
</g>
<g>
</g>
<g>
</g>
<g>
</g>
<g>
</g>
<g>
</g>
<g>
</g>
</svg>
